<?xml version="1.0" encoding="UTF-8"?>
<!DOCTYPE svg PUBLIC "-//W3C//DTD SVG 1.1//EN" "http://www.w3.org/Graphics/SVG/1.1/DTD/svg11.dtd">
<svg xmlns="http://www.w3.org/2000/svg" version="1.1" width="1309px" height="1309px" style="shape-rendering:geometricPrecision; text-rendering:geometricPrecision; image-rendering:optimizeQuality; fill-rule:evenodd; clip-rule:evenodd" xmlns:xlink="http://www.w3.org/1999/xlink">
<g><path style="opacity:0.998" fill="#f1eee7" d="M 617.5,-0.5 C 641.833,-0.5 666.167,-0.5 690.5,-0.5C 873.406,13.2074 1025.91,87.8741 1148,223.5C 1244.77,336.769 1298.27,468.102 1308.5,617.5C 1308.5,641.833 1308.5,666.167 1308.5,690.5C 1294.79,873.406 1220.13,1025.91 1084.5,1148C 971.231,1244.77 839.898,1298.27 690.5,1308.5C 666.167,1308.5 641.833,1308.5 617.5,1308.5C 434.594,1294.79 282.094,1220.13 160,1084.5C 63.2318,971.231 9.73179,839.898 -0.5,690.5C -0.5,666.167 -0.5,641.833 -0.5,617.5C 13.2074,434.594 87.8741,282.094 223.5,160C 336.769,63.2318 468.102,9.73179 617.5,-0.5 Z"/></g>
<g><path style="opacity:1" fill="#652538" d="M 670.5,41.5 C 673.85,41.335 677.183,41.5017 680.5,42C 683.934,43.5293 685.6,46.196 685.5,50C 685.604,52.1454 684.937,53.9788 683.5,55.5C 671.582,57.1636 659.582,57.8303 647.5,57.5C 649.409,89.134 650.242,120.801 650,152.5C 647.017,155.857 643.517,156.357 639.5,154C 637.396,151.958 636.229,149.458 636,146.5C 634.223,118.508 632.556,90.5076 631,62.5C 630.781,61.062 630.281,59.7287 629.5,58.5C 618.881,59.9577 608.214,60.791 597.5,61C 592.931,58.4586 591.431,54.6253 593,49.5C 594.514,47.2344 596.681,46.0677 599.5,46C 623.338,44.7269 647.004,43.2269 670.5,41.5 Z"/></g>
<g><path style="opacity:1" fill="#662639" d="M 564.5,49.5 C 574.642,49.6116 577.975,54.2783 574.5,63.5C 556.186,67.9624 537.853,72.2957 519.5,76.5C 522.349,86.8996 525.349,97.2329 528.5,107.5C 541.591,104.515 554.758,101.848 568,99.5C 576.218,99.9548 578.885,103.955 576,111.5C 574.421,113.041 572.587,114.208 570.5,115C 557.527,117.795 544.527,120.461 531.5,123C 535.379,136.351 538.713,149.851 541.5,163.5C 541.436,170.884 537.77,173.384 530.5,171C 528.741,169.992 527.574,168.492 527,166.5C 519.156,138.122 511.156,109.789 503,81.5C 501.561,76.2375 501.228,70.9042 502,65.5C 503.236,63.4616 505.069,62.2949 507.5,62C 526.671,58.0017 545.671,53.835 564.5,49.5 Z"/></g>
<g><path style="opacity:1" fill="#642337" d="M 779.5,53.5 C 790.818,53.0503 800.818,56.3836 809.5,63.5C 817.763,73.2234 819.096,83.7234 813.5,95C 808.498,97.6011 804.665,96.4344 802,91.5C 800.97,87.2273 800.303,82.894 800,78.5C 794.692,69.6413 787.192,67.1413 777.5,71C 773.514,73.8012 771.181,77.6345 770.5,82.5C 771.602,87.3699 773.768,91.7032 777,95.5C 777.93,98.85 777.097,101.683 774.5,104C 757.174,110.479 751.674,122.312 758,139.5C 769.772,153.315 782.105,153.982 795,141.5C 802.526,130.712 799.692,126.879 786.5,130C 785.069,130.465 783.903,131.299 783,132.5C 783.547,141.624 779.38,145.457 770.5,144C 766.329,139.485 765.496,134.318 768,128.5C 772.419,118.363 780.252,113.363 791.5,113.5C 797.944,114.322 804.277,115.655 810.5,117.5C 811.478,117.023 812.311,116.357 813,115.5C 814.117,106.524 818.951,103.524 827.5,106.5C 830.159,113.762 829.326,120.762 825,127.5C 822.29,129.688 819.29,131.355 816,132.5C 808.111,160.193 790.278,170.359 762.5,163C 748.006,156.211 740.34,144.711 739.5,128.5C 739.282,113.782 745.282,102.449 757.5,94.5C 750.967,73.2259 758.3,59.5592 779.5,53.5 Z"/></g>
<g><path style="opacity:1" fill="#652538" d="M 435.5,86.5 C 439.257,86.0708 442.757,86.7375 446,88.5C 467.626,114.461 489.626,140.128 512,165.5C 514.109,169.781 513.942,173.948 511.5,178C 508.97,179.422 506.303,179.755 503.5,179C 496.976,172.977 490.976,166.477 485.5,159.5C 473.609,164.407 461.776,169.407 450,174.5C 449.833,176.167 449.667,177.833 449.5,179.5C 451.319,187.698 450.819,195.698 448,203.5C 443.585,206.55 439.918,205.883 437,201.5C 433.368,165.599 431.368,129.599 431,93.5C 431.53,90.415 433.03,88.0817 435.5,86.5 Z"/></g>
<g><path style="opacity:1" fill="#642337" d="M 935.5,113.5 C 960.467,111.488 980.8,120.154 996.5,139.5C 999.783,144.233 1002.12,149.4 1003.5,155C 1001.8,164.019 997.132,165.852 989.5,160.5C 982.558,147.057 972.225,137.224 958.5,131C 938.106,125.353 921.606,130.853 909,147.5C 897.246,176.476 905.413,197.643 933.5,211C 941.821,212.066 950.155,212.899 958.5,213.5C 961.286,218.019 960.953,222.352 957.5,226.5C 933.577,230.71 913.91,223.376 898.5,204.5C 880.904,174.951 884.237,148.118 908.5,124C 916.98,118.744 925.98,115.244 935.5,113.5 Z"/></g>
<g><path style="opacity:1" fill="#f1eee7" d="M 447.5,116.5 C 456.967,126.135 466.3,135.969 475.5,146C 466.691,150.074 457.691,153.574 448.5,156.5C 447.694,143.183 447.361,129.85 447.5,116.5 Z"/></g>
<g><path style="opacity:1" fill="#652438" d="M 351.5,129.5 C 366.097,127.389 377.93,132.056 387,143.5C 391.857,153.823 392.69,164.489 389.5,175.5C 395.668,177.251 401.334,180.084 406.5,184C 409.798,189.43 413.465,194.597 417.5,199.5C 426.094,201.683 428.427,206.683 424.5,214.5C 415.814,218.106 408.647,216.106 403,208.5C 400.112,203.224 396.612,198.391 392.5,194C 386.167,192 379.833,192 373.5,194C 367.725,197.284 362.391,201.117 357.5,205.5C 364.333,215.833 371.167,226.167 378,236.5C 378.938,245.567 375.105,248.734 366.5,246C 346.386,218.939 326.886,191.439 308,163.5C 306.944,159.376 307.778,155.71 310.5,152.5C 319.5,146.667 328.5,140.833 337.5,135C 341.962,132.255 346.628,130.422 351.5,129.5 Z"/></g>
<g><path style="opacity:1" fill="#f1eee7" d="M 352.5,145.5 C 369.337,144.17 376.837,151.836 375,168.5C 373.756,172.194 371.589,175.194 368.5,177.5C 361.53,181.971 354.696,186.638 348,191.5C 341.043,181.754 334.21,171.921 327.5,162C 335.589,155.967 343.923,150.467 352.5,145.5 Z"/></g>
<g><path style="opacity:1" fill="#642337" d="M 1035.5,178.5 C 1071.42,179.263 1091.09,197.429 1094.5,233C 1093.81,259.062 1081.48,277.062 1057.5,287C 1032.21,296.427 1010.54,291.26 992.5,271.5C 975.438,242.675 978.438,216.175 1001.5,192C 1011.72,184.376 1023.06,179.876 1035.5,178.5 Z"/></g>
<g><path style="opacity:1" fill="#642337" d="M 284.5,182.5 C 295.06,181.215 298.893,185.548 296,195.5C 289.477,198.508 282.644,200.675 275.5,202C 250.882,213.738 241.715,232.905 248,259.5C 258.23,278.365 274.063,286.198 295.5,283C 308.902,279.253 319.069,271.419 326,259.5C 327.208,254.196 329.375,249.363 332.5,245C 340.353,242.107 344.353,244.94 344.5,253.5C 339.928,274.978 327.262,289.478 306.5,297C 280.846,304.212 258.679,298.379 240,279.5C 230.084,264.56 227.084,248.226 231,230.5C 238.957,203.371 256.79,187.371 284.5,182.5 Z"/></g>
<g><path style="opacity:1" fill="#f1ede6" d="M 1029.5,194.5 C 1054.58,191.784 1070.75,202.451 1078,226.5C 1080.3,244.724 1073.8,258.89 1058.5,269C 1035.91,280.717 1017.08,276.55 1002,256.5C 992.932,233.711 998.098,214.878 1017.5,200C 1021.48,197.854 1025.48,196.02 1029.5,194.5 Z"/></g>
<g><path style="opacity:1" fill="#642337" d="M 651.5,199.5 C 793.55,197.429 913.383,247.429 1011,349.5C 1110.64,463.145 1149.31,595.145 1127,745.5C 1102.56,874.486 1037.06,976.653 930.5,1052C 805.796,1132.67 671.796,1152.67 528.5,1112C 384.56,1064.06 284.727,969.559 229,828.5C 190.415,718.251 191.081,608.251 231,498.5C 291.816,350.689 399.316,255.522 553.5,213C 585.888,205.37 618.555,200.87 651.5,199.5 Z"/></g>
<g><path style="opacity:1" fill="#f1eee7" d="M 662.5,217.5 C 807.776,219.397 926.276,276.064 1018,387.5C 1100.66,495.486 1130.33,616.819 1107,751.5C 1079.56,879.2 1011.06,978.033 901.5,1048C 879.305,1061.1 856.305,1072.6 832.5,1082.5C 830.54,1072.23 829.373,1061.9 829,1051.5C 830.739,1052.89 832.739,1053.56 835,1053.5C 843.813,1051.56 851.813,1047.9 859,1042.5C 862.038,1034.58 859.371,1029.91 851,1028.5C 848.747,1028.63 846.581,1029.13 844.5,1030C 838.681,1032.27 833.181,1035.1 828,1038.5C 827.667,1038.17 827.333,1037.83 827,1037.5C 826.121,1025.33 825.288,1013.16 824.5,1001C 827.442,965.54 829.942,930.04 832,894.5C 837.071,867.717 840.405,840.717 842,813.5C 845.145,799.253 847.812,784.92 850,770.5C 850.867,755.157 851.867,739.823 853,724.5C 871.177,720.819 889.344,721.319 907.5,726C 943.977,740.11 959.477,766.61 954,805.5C 949.433,823.471 940.6,838.971 927.5,852C 911.145,867.516 892.479,879.516 871.5,888C 866.634,892.719 866.301,897.719 870.5,903C 873.881,905.245 877.548,905.912 881.5,905C 913.094,893.121 938.928,873.621 959,846.5C 976.457,817.722 979.79,787.389 969,755.5C 955.907,726.753 933.74,709.586 902.5,704C 894.357,702.936 886.19,702.102 878,701.5C 869.824,702.14 861.658,702.806 853.5,703.5C 852.923,696.808 852.09,690.142 851,683.5C 848.759,675.134 846.759,666.801 845,658.5C 890.831,628.015 905.498,586.348 889,533.5C 870.064,491.419 837.898,465.586 792.5,456C 771.24,452.083 749.907,451.583 728.5,454.5C 725.277,441.22 719.277,429.386 710.5,419C 698.386,415.257 688.219,418.423 680,428.5C 682.18,389.714 684.014,350.88 685.5,312C 685.39,303.144 684.89,294.311 684,285.5C 679.498,281.133 675.832,281.799 673,287.5C 672.587,298.849 671.92,310.182 671,321.5C 668.196,343.638 665.363,365.638 662.5,387.5C 648.656,379.274 636.823,381.608 627,394.5C 617.817,413.716 610.817,433.716 606,454.5C 603.94,459.62 601.607,464.62 599,469.5C 589.39,484.11 579.39,498.443 569,512.5C 558.481,523.718 548.314,535.218 538.5,547C 523.383,553.455 508.716,560.789 494.5,569C 473.301,577.177 451.634,579.51 429.5,576C 420.167,572 410.833,568 401.5,564C 391.168,562.001 386.668,566.168 388,576.5C 388.785,578.286 389.951,579.786 391.5,581C 400.147,584.964 408.814,588.964 417.5,593C 445.598,599.417 473.265,597.75 500.5,588C 505.711,585.053 511.045,582.72 516.5,581C 505.059,591.039 495.892,602.872 489,616.5C 487.79,622.22 486.457,627.887 485,633.5C 474.539,640.753 469.039,650.753 468.5,663.5C 436.051,665.261 406.384,675.094 379.5,693C 345.07,723.883 335.57,761.383 351,805.5C 369.029,846.186 399.529,872.686 442.5,885C 488.39,896.162 533.057,892.496 576.5,874C 584.838,870.164 593.172,866.331 601.5,862.5C 609.04,865.958 616.707,869.125 624.5,872C 631.576,876.406 638.076,881.572 644,887.5C 646.148,894.576 647.648,901.743 648.5,909C 645.604,928.825 642.437,948.658 639,968.5C 636.89,994.802 635.224,1021.14 634,1047.5C 631.251,1068.91 628.084,1090.24 624.5,1111.5C 492.191,1096.95 386.025,1036.95 306,931.5C 228.664,822.454 202.997,702.12 229,570.5C 260.673,439.225 334.84,340.058 451.5,273C 517.361,237.208 587.694,218.708 662.5,217.5 Z"/></g>
<g><path style="opacity:1" fill="#652438" d="M 623.5,245.5 C 631.204,244.5 635.871,247.667 637.5,255C 637.174,257.484 636.174,259.651 634.5,261.5C 626.714,262.982 618.88,264.316 611,265.5C 604.653,265.419 601.153,262.252 600.5,256C 600.703,253.594 601.703,251.594 603.5,250C 610.145,247.893 616.812,246.393 623.5,245.5 Z"/></g>
<g><path style="opacity:1" fill="#662639" d="M 656.5,244.5 C 664.903,244.13 673.236,244.63 681.5,246C 685.033,248.664 686.2,252.164 685,256.5C 684.5,258.333 683.333,259.5 681.5,260C 672.191,261.234 662.858,261.567 653.5,261C 649.955,257.59 648.788,253.424 650,248.5C 651.748,246.372 653.915,245.039 656.5,244.5 Z"/></g>
<g><path style="opacity:1" fill="#662539" d="M 702.5,245.5 C 711.913,246.343 721.247,247.676 730.5,249.5C 736.115,258.145 733.948,263.479 724,265.5C 717.203,264.38 710.37,263.546 703.5,263C 696.474,261.122 693.974,256.622 696,249.5C 697.748,247.372 699.915,246.039 702.5,245.5 Z"/></g>
<g><path style="opacity:1" fill="#652438" d="M 746.5,252.5 C 757.311,254.063 767.978,256.396 778.5,259.5C 780.98,263.687 781.147,268.02 779,272.5C 777.406,274.297 775.406,275.297 773,275.5C 763.601,273.755 754.434,271.255 745.5,268C 741.442,262.486 741.776,257.319 746.5,252.5 Z"/></g>
<g><path style="opacity:1" fill="#652538" d="M 578.5,252.5 C 586.185,251.324 590.518,254.491 591.5,262C 591.297,264.406 590.297,266.406 588.5,268C 580.195,270.796 571.695,272.963 563,274.5C 557.054,274.387 553.888,271.387 553.5,265.5C 553.556,262.889 554.556,260.722 556.5,259C 563.838,256.503 571.171,254.337 578.5,252.5 Z"/></g>
<g><path style="opacity:1" fill="#652539" d="M 530.5,265.5 C 542.252,263.579 546.585,268.246 543.5,279.5C 535.721,283.15 527.721,286.317 519.5,289C 509.412,289.664 505.912,285.164 509,275.5C 515.75,271.092 522.917,267.759 530.5,265.5 Z"/></g>
<g><path style="opacity:1" fill="#662539" d="M 794.5,265.5 C 803.937,266.812 812.937,269.645 821.5,274C 825.374,279.182 825.374,284.182 821.5,289C 811.457,288.239 801.791,285.739 792.5,281.5C 787.973,275.355 788.639,270.022 794.5,265.5 Z"/></g>
<g><path style="opacity:1" fill="#652438" d="M 488.5,282.5 C 497.979,283.182 501.312,288.182 498.5,297.5C 491.81,301.512 484.81,305.012 477.5,308C 467.403,308.64 463.903,304.14 467,294.5C 473.857,289.824 481.024,285.824 488.5,282.5 Z"/></g>
<g><path style="opacity:1" fill="#652538" d="M 837.5,283.5 C 841.247,283.392 844.914,283.892 848.5,285C 853.888,288.361 859.554,291.194 865.5,293.5C 868.619,297.546 869.119,301.88 867,306.5C 864.347,309.194 861.18,310.027 857.5,309C 850.955,305.56 844.288,302.394 837.5,299.5C 832.247,294.01 832.247,288.676 837.5,283.5 Z"/></g>
<g><path style="opacity:1" fill="#642337" d="M 879.5,305.5 C 881.857,305.337 884.19,305.503 886.5,306C 893.634,310.303 900.634,314.803 907.5,319.5C 913.896,330.537 910.896,335.37 898.5,334C 891.998,330.25 885.665,326.25 879.5,322C 874.189,316.383 874.189,310.883 879.5,305.5 Z"/></g>
<g><path style="opacity:1" fill="#642337" d="M 444.5,306.5 C 454.805,305.739 458.472,310.406 455.5,320.5C 450.179,324.828 444.512,328.662 438.5,332C 426.412,334.911 422.246,330.411 426,318.5C 432.072,314.243 438.239,310.243 444.5,306.5 Z"/></g>
<g><path style="opacity:1" fill="#642337" d="M 1060.5,311.5 C 1068.38,310.759 1072.71,314.259 1073.5,322C 1071.09,333.207 1064.75,336.373 1054.5,331.5C 1047.83,322.212 1049.83,315.545 1060.5,311.5 Z"/></g>
<g><path style="opacity:1" fill="#642337" d="M 407.5,332.5 C 414.583,331.748 418.583,334.914 419.5,342C 419.091,344.321 418.257,346.487 417,348.5C 411.167,353 405.333,357.5 399.5,362C 391.172,365.917 386.505,363.417 385.5,354.5C 385.763,351.972 386.596,349.639 388,347.5C 394.118,341.874 400.618,336.874 407.5,332.5 Z"/></g>
<g><path style="opacity:1" fill="#642438" d="M 920.5,333.5 C 924.511,333.502 928.178,334.668 931.5,337C 936,340.833 940.5,344.667 945,348.5C 948.469,353.333 948.302,358 944.5,362.5C 939.939,364.055 935.606,363.555 931.5,361C 926.667,356.833 921.833,352.667 917,348.5C 913.026,342.189 914.193,337.189 920.5,333.5 Z"/></g>
<g><path style="opacity:1" fill="#642438" d="M 371.5,364.5 C 378.398,363.946 382.065,367.113 382.5,374C 382.066,376.634 381.233,379.134 380,381.5C 375.833,385.667 371.667,389.833 367.5,394C 363.57,395.751 359.57,395.918 355.5,394.5C 351.8,389.629 351.634,384.629 355,379.5C 360.149,373.839 365.649,368.839 371.5,364.5 Z"/></g>
<g><path style="opacity:1" fill="#652438" d="M 954.5,364.5 C 958.007,364.307 961.34,364.973 964.5,366.5C 969.152,371.652 973.985,376.652 979,381.5C 983.244,386.479 983.41,391.479 979.5,396.5C 974.939,398.055 970.606,397.555 966.5,395C 961.319,390.119 956.485,384.953 952,379.5C 948.102,373.551 948.935,368.551 954.5,364.5 Z"/></g>
<g><path style="opacity:1" fill="#642438" d="M 339.5,399.5 C 347.938,399.104 351.771,403.104 351,411.5C 346.417,419.249 341.25,426.582 335.5,433.5C 323.834,435.664 319.667,430.997 323,419.5C 327.669,412.011 333.169,405.345 339.5,399.5 Z"/></g>
<g><path style="opacity:1" fill="#642337" d="M 987.5,400.5 C 990.667,400.4 993.667,401.067 996.5,402.5C 1003.18,409.696 1008.18,417.862 1011.5,427C 1011.51,431.987 1009.01,434.154 1004,433.5C 1001.29,433.589 998.787,432.922 996.5,431.5C 993.19,427.022 989.69,422.689 986,418.5C 984.027,415.536 982.527,412.369 981.5,409C 982.174,405.17 984.174,402.336 987.5,400.5 Z"/></g>
<g><path style="opacity:1" fill="#f1eee7" d="M 647.5,402.5 C 656.66,407.083 660.66,414.583 659.5,425C 658.412,435.121 657.246,445.288 656,455.5C 653.182,465.473 649.515,475.14 645,484.5C 639.229,494.605 633.896,504.938 629,515.5C 626.341,524.472 623.841,533.472 621.5,542.5C 617.527,540.06 613.194,539.06 608.5,539.5C 603.788,539.586 599.121,540.086 594.5,541C 582.185,544.841 570.185,549.175 558.5,554C 584.524,527.779 606.024,498.279 623,465.5C 628.259,446.128 634.592,427.128 642,408.5C 644.04,406.63 645.873,404.63 647.5,402.5 Z"/></g>
<g><path style="opacity:1" fill="#f1eee7" d="M 698.5,438.5 C 699.496,438.414 700.329,438.748 701,439.5C 704.236,445.472 707.069,451.639 709.5,458C 702.609,460.267 695.775,462.767 689,465.5C 688.945,459.446 689.612,453.446 691,447.5C 693.335,444.335 695.835,441.335 698.5,438.5 Z"/></g>
<g><path style="opacity:1" fill="#642438" d="M 311.5,439.5 C 319.989,439.154 323.822,443.154 323,451.5C 319.667,457.5 316.333,463.5 313,469.5C 306.816,475.246 301.482,474.579 297,467.5C 296.333,465.5 296.333,463.5 297,461.5C 300.078,455.009 303.412,448.675 307,442.5C 308.652,441.601 310.152,440.601 311.5,439.5 Z"/></g>
<g><path style="opacity:1" fill="#662639" d="M 1014.5,439.5 C 1020.96,438.975 1025.46,441.642 1028,447.5C 1031,453.167 1034,458.833 1037,464.5C 1037.38,474.569 1032.88,477.569 1023.5,473.5C 1017.78,465.386 1013.11,456.719 1009.5,447.5C 1009.67,443.807 1011.34,441.141 1014.5,439.5 Z"/></g>
<g><path style="opacity:1" fill="#f1eee7" d="M 754.5,472.5 C 801.344,471.503 837.844,490.17 864,528.5C 885.851,572.745 877.018,609.412 837.5,638.5C 828.972,620.442 820.138,602.442 811,584.5C 800.13,566.765 787.797,550.098 774,534.5C 761.918,517.343 750.585,499.676 740,481.5C 738.864,478.904 738.031,476.237 737.5,473.5C 743.358,473.822 749.025,473.489 754.5,472.5 Z"/></g>
<g><path style="opacity:1" fill="#f1eee7" d="M 712.5,478.5 C 714.288,478.215 715.955,478.548 717.5,479.5C 734.85,514.666 756.35,546.999 782,576.5C 797.988,599.142 810.155,623.476 818.5,649.5C 781.093,665.199 742.259,671.532 702,668.5C 699.149,662.797 696.315,657.13 693.5,651.5C 696.418,645.163 698.084,638.496 698.5,631.5C 705.651,627.55 710.151,621.55 712,613.5C 718.938,594.295 719.271,574.962 713,555.5C 708.396,542.354 703.396,529.354 698,516.5C 694.876,507.336 692.376,498.003 690.5,488.5C 690.59,486.575 691.59,485.408 693.5,485C 699.979,482.897 706.313,480.73 712.5,478.5 Z"/></g>
<g><path style="opacity:1" fill="#642337" d="M 288.5,480.5 C 295.78,479.63 299.78,482.796 300.5,490C 297.59,498.655 294.257,507.155 290.5,515.5C 286.456,519.105 282.123,519.438 277.5,516.5C 275.82,514.299 274.82,511.799 274.5,509C 277.302,500.227 280.802,491.727 285,483.5C 286.145,482.364 287.312,481.364 288.5,480.5 Z"/></g>
<g><path style="opacity:1" fill="#652538" d="M 1038.5,482.5 C 1041.81,482.063 1044.81,482.73 1047.5,484.5C 1050.67,491.5 1053.83,498.5 1057,505.5C 1059.22,513.943 1056.05,517.776 1047.5,517C 1045.58,516.64 1043.91,515.806 1042.5,514.5C 1039.33,507.5 1036.17,500.5 1033,493.5C 1031.68,488.141 1033.51,484.474 1038.5,482.5 Z"/></g>
<g><path style="opacity:1" fill="#f1eee7" d="M 657.5,504.5 C 660.431,514.378 666.598,517.045 676,512.5C 681.383,527.6 687.049,542.6 693,557.5C 698.898,574.203 698.898,590.87 693,607.5C 692.252,609.332 691.252,610.999 690,612.5C 679.42,593.584 665.587,577.417 648.5,564C 645.017,560.683 642.017,557.016 639.5,553C 641.787,542.352 644.62,531.852 648,521.5C 650.196,515.175 653.363,509.509 657.5,504.5 Z"/></g>
<g><path style="opacity:1" fill="#652538" d="M 270.5,525.5 C 277.555,525.525 281.555,529.025 282.5,536C 280.598,544.037 278.098,551.871 275,559.5C 270.537,563.455 266.037,563.455 261.5,559.5C 260.531,557.427 259.865,555.261 259.5,553C 260.924,546.06 262.758,539.227 265,532.5C 265.967,529.379 267.8,527.046 270.5,525.5 Z"/></g>
<g><path style="opacity:1" fill="#652538" d="M 1055.5,525.5 C 1058.79,525.259 1061.79,526.092 1064.5,528C 1068.81,536.72 1071.81,545.887 1073.5,555.5C 1073.3,562.204 1069.97,565.037 1063.5,564C 1061.07,563.705 1059.24,562.538 1058,560.5C 1055.09,551.763 1052.59,542.93 1050.5,534C 1050.02,529.789 1051.68,526.956 1055.5,525.5 Z"/></g>
<g><path style="opacity:1" fill="#f1eee7" d="M 667.5,615.5 C 660.734,606.899 653.067,599.066 644.5,592C 635.306,585.071 624.972,580.905 613.5,579.5C 594.312,584.215 575.312,589.715 556.5,596C 542.167,602.833 527.833,609.667 513.5,616.5C 513.167,616.167 512.833,615.833 512.5,615.5C 522.444,601.388 534.777,589.888 549.5,581C 562.666,574.612 575.999,568.612 589.5,563C 601.85,557.124 613.183,558.457 623.5,567C 634.363,578.197 645.529,589.03 657,599.5C 661.142,604.463 664.642,609.796 667.5,615.5 Z"/></g>
<g><path style="opacity:1" fill="#652539" d="M 256.5,571.5 C 264.125,570.469 268.792,573.636 270.5,581C 268.732,588.438 267.232,595.938 266,603.5C 262.246,608.936 257.413,609.936 251.5,606.5C 250.007,604.636 249.34,602.47 249.5,600C 250.258,591.358 251.758,582.858 254,574.5C 254.698,573.309 255.531,572.309 256.5,571.5 Z"/></g>
<g><path style="opacity:1" fill="#652538" d="M 1066.5,573.5 C 1070.34,573.239 1074.01,573.906 1077.5,575.5C 1078.81,576.912 1079.64,578.579 1080,580.5C 1081.45,588.01 1082.95,595.51 1084.5,603C 1081.64,610.58 1076.64,612.247 1069.5,608C 1068.54,606.581 1067.71,605.081 1067,603.5C 1064.85,594.594 1063.85,585.594 1064,576.5C 1064.7,575.309 1065.53,574.309 1066.5,573.5 Z"/></g>
<g><path style="opacity:1" fill="#f1eee7" d="M 611.5,599.5 C 616.997,599.243 621.997,600.743 626.5,604C 633.262,608.758 639.429,614.258 645,620.5C 657.414,636.414 669.247,652.747 680.5,669.5C 680,669.833 679.5,670.167 679,670.5C 675.486,669.942 671.986,669.276 668.5,668.5C 659.099,655.927 648.765,644.093 637.5,633C 632.575,630.815 627.408,629.648 622,629.5C 598.068,630.024 575.902,636.524 555.5,649C 548.998,652.75 542.665,656.75 536.5,661C 532.445,661.232 528.445,661.732 524.5,662.5C 512.551,661.521 500.551,661.187 488.5,661.5C 490.053,656.424 493.053,652.257 497.5,649C 518.158,635.837 539.824,624.504 562.5,615C 578.905,609.656 595.238,604.49 611.5,599.5 Z"/></g>
<g><path style="opacity:1" fill="#f1efe7" d="M 667.5,615.5 C 668.906,615.973 669.573,616.973 669.5,618.5C 668.094,618.027 667.427,617.027 667.5,615.5 Z"/></g>
<g><path style="opacity:1" fill="#652538" d="M 249.5,617.5 C 259.256,616.968 263.59,621.635 262.5,631.5C 261.903,638.864 261.069,646.198 260,653.5C 255.873,658.356 251.373,658.689 246.5,654.5C 244.961,651.512 243.961,648.346 243.5,645C 244.479,638.187 245.313,631.354 246,624.5C 246.139,621.555 247.306,619.221 249.5,617.5 Z"/></g>
<g><path style="opacity:1" fill="#f1efe7" d="M 669.5,618.5 C 671.085,619.002 671.585,620.002 671,621.5C 669.961,620.756 669.461,619.756 669.5,618.5 Z"/></g>
<g><path style="opacity:1" fill="#652539" d="M 1075.5,619.5 C 1082.25,619.416 1086.09,622.749 1087,629.5C 1088.35,637.543 1088.35,645.543 1087,653.5C 1086.5,654.667 1085.67,655.5 1084.5,656C 1079.06,657.655 1074.9,656.155 1072,651.5C 1071.23,643.99 1070.39,636.49 1069.5,629C 1069.65,624.518 1071.65,621.351 1075.5,619.5 Z"/></g>
<g><path style="opacity:1" fill="#f1eee7" d="M 612.5,649.5 C 616.514,649.334 620.514,649.501 624.5,650C 630.838,656.005 636.838,662.338 642.5,669C 618.215,667.781 593.882,666.114 569.5,664C 582.912,656.03 597.246,651.196 612.5,649.5 Z"/></g>
<g><path style="opacity:1" fill="#652538" d="M 249.5,667.5 C 254.023,667.18 257.523,668.846 260,672.5C 261.166,681.494 261.833,690.494 262,699.5C 257.814,706.538 252.814,707.205 247,701.5C 244.757,692.984 243.757,684.318 244,675.5C 244.135,671.551 245.969,668.884 249.5,667.5 Z"/></g>
<g><path style="opacity:1" fill="#f1eee7" d="M 825.5,668.5 C 829.218,676.689 831.718,685.356 833,694.5C 833.694,721.23 832.694,747.896 830,774.5C 823.636,800.11 819.969,826.11 819,852.5C 817,864.498 815,876.498 813,888.5C 810.832,925.858 808.332,963.191 805.5,1000.5C 807.04,1030.57 809.373,1060.57 812.5,1090.5C 757.933,1108.63 701.933,1116.3 644.5,1113.5C 652.001,1069.83 656.167,1025.83 657,981.5C 660.205,959.81 663.538,938.143 667,916.5C 668.094,901.917 665.761,887.917 660,874.5C 652.13,867.151 643.63,860.651 634.5,855C 625.382,851.275 616.382,847.275 607.5,843C 591.113,831.639 573.446,822.639 554.5,816C 543.49,809.16 532.156,802.826 520.5,797C 499.291,785.79 484.457,768.957 476,746.5C 475.333,743.167 475.333,739.833 476,736.5C 482.496,729.004 489.329,721.837 496.5,715C 511.95,706.216 526.284,695.883 539.5,684C 542.426,683.782 545.26,683.282 548,682.5C 585.468,685.165 622.968,687.998 660.5,691C 669.346,702.194 676.512,714.36 682,727.5C 682.667,729.833 682.667,732.167 682,734.5C 676.909,742.828 670.742,750.328 663.5,757C 657.5,761.667 651.5,766.333 645.5,771C 640,777.833 633.833,784 627,789.5C 621.358,783.308 618.858,775.975 619.5,767.5C 620.279,762.887 620.779,758.22 621,753.5C 624.574,746.92 628.574,740.587 633,734.5C 636.662,727.451 635.995,720.785 631,714.5C 626.867,706.013 620.034,702.013 610.5,702.5C 596.971,704.098 584.971,709.264 574.5,718C 566.938,724.563 560.438,732.063 555,740.5C 553.668,750.832 558.168,754.999 568.5,753C 575.149,745.086 582.483,737.752 590.5,731C 595.855,726.823 601.855,723.99 608.5,722.5C 611.271,722.384 613.271,723.551 614.5,726C 609.159,732.849 604.992,740.349 602,748.5C 600,761.167 600,773.833 602,786.5C 605.712,794.765 610.545,802.265 616.5,809C 626.184,811.595 634.851,809.595 642.5,803C 653.311,790.848 665.311,780.181 678.5,771C 690.745,760.33 698.745,747.164 702.5,731.5C 701.594,723.541 699.594,715.875 696.5,708.5C 698.255,702.563 700.588,696.896 703.5,691.5C 729.641,690.168 755.641,687.335 781.5,683C 796.8,679.685 811.467,674.851 825.5,668.5 Z"/></g>
<g><path style="opacity:1" fill="#f1eee7" d="M 492.5,681.5 C 498.509,681.334 504.509,681.501 510.5,682C 505.338,685.749 500.004,689.249 494.5,692.5C 493.914,692.291 493.414,691.957 493,691.5C 492.502,688.183 492.335,684.85 492.5,681.5 Z"/></g>
<g><path style="opacity:1" fill="#f1eee7" d="M 463.5,683.5 C 466.5,683.5 469.5,683.5 472.5,683.5C 473.941,692.288 474.108,700.955 473,709.5C 462.557,717.933 456.391,728.766 454.5,742C 459.198,760.729 467.865,777.396 480.5,792C 487.88,798.382 495.547,804.382 503.5,810C 517.328,817.413 530.995,825.08 544.5,833C 553.669,837.39 563.003,841.39 572.5,845C 575.21,846.015 577.543,847.515 579.5,849.5C 537.198,871.801 492.865,876.967 446.5,865C 408.783,853.281 382.616,829.114 368,792.5C 357.325,747.456 373.159,715.289 415.5,696C 431.166,690.047 447.166,685.88 463.5,683.5 Z"/></g>
<g><path style="opacity:1" fill="#f1efe7" d="M 675.5,686.5 C 679.634,685.515 683.968,685.182 688.5,685.5C 687.805,689.945 686.638,694.278 685,698.5C 681.584,694.652 678.417,690.652 675.5,686.5 Z"/></g>
<g><path style="opacity:1" fill="#662639" d="M 1075.5,686.5 C 1083.07,685.283 1087.41,688.45 1088.5,696C 1087.46,704.238 1086.13,712.405 1084.5,720.5C 1081.45,722.466 1078.12,722.966 1074.5,722C 1072.33,721.167 1070.83,719.667 1070,717.5C 1069.09,707.599 1070.09,697.932 1073,688.5C 1073.99,687.934 1074.83,687.267 1075.5,686.5 Z"/></g>
<g><path style="opacity:1" fill="#662639" d="M 253.5,714.5 C 258.023,714.18 261.523,715.846 264,719.5C 265.371,727.353 266.871,735.187 268.5,743C 267.829,749.833 264.162,752.499 257.5,751C 254.943,750.315 253.109,748.815 252,746.5C 250.341,738.865 248.841,731.199 247.5,723.5C 247.785,719.24 249.785,716.24 253.5,714.5 Z"/></g>
<g><path style="opacity:1" fill="#652538" d="M 1070.5,732.5 C 1077.92,732.084 1081.58,735.584 1081.5,743C 1080.98,751.911 1078.98,760.411 1075.5,768.5C 1066.26,771.05 1061.59,767.55 1061.5,758C 1062.61,750.765 1064.11,743.598 1066,736.5C 1067.25,734.807 1068.75,733.473 1070.5,732.5 Z"/></g>
<g><path style="opacity:1" fill="#642438" d="M 259.5,760.5 C 262.941,760.301 266.274,760.801 269.5,762C 271.259,763.008 272.426,764.508 273,766.5C 275.37,773.944 277.537,781.444 279.5,789C 277.708,797.561 273.041,799.561 265.5,795C 260.716,786.312 257.716,776.979 256.5,767C 256.32,764.198 257.32,762.031 259.5,760.5 Z"/></g>
<g><path style="opacity:1" fill="#652438" d="M 1057.5,778.5 C 1065.13,777.469 1069.79,780.636 1071.5,788C 1068.67,797.333 1065.33,806.5 1061.5,815.5C 1056.91,818.287 1052.75,817.621 1049,813.5C 1047.98,811.298 1047.48,808.965 1047.5,806.5C 1049.19,796.471 1052.53,787.138 1057.5,778.5 Z"/></g>
<g><path style="opacity:1" fill="#652538" d="M 275.5,805.5 C 282.492,804.904 286.992,807.904 289,814.5C 291.504,821.347 294.004,828.18 296.5,835C 294.782,843.358 290.116,845.524 282.5,841.5C 277.596,833.19 273.929,824.357 271.5,815C 271.715,811.234 273.049,808.067 275.5,805.5 Z"/></g>
<g><path style="opacity:1" fill="#652538" d="M 1040.5,825.5 C 1048.88,823.344 1053.21,826.51 1053.5,835C 1051.09,841.993 1048.25,848.826 1045,855.5C 1041.07,859.904 1036.57,860.571 1031.5,857.5C 1029.68,855.525 1028.68,853.191 1028.5,850.5C 1031.19,841.456 1035.19,833.123 1040.5,825.5 Z"/></g>
<g><path style="opacity:1" fill="#652438" d="M 294.5,851.5 C 299.765,850.571 304.265,851.904 308,855.5C 311.603,861.707 314.936,868.04 318,874.5C 319.499,881.162 316.833,884.829 310,885.5C 306.928,884.964 304.261,883.63 302,881.5C 298.397,875.293 295.064,868.96 292,862.5C 290.813,858.217 291.647,854.55 294.5,851.5 Z"/></g>
<g><path style="opacity:1" fill="#652539" d="M 1020.5,866.5 C 1029.32,865.822 1033.16,869.822 1032,878.5C 1028.31,887.76 1022.81,895.594 1015.5,902C 1011.59,902.931 1008.09,902.097 1005,899.5C 1003.63,897.305 1003.29,894.971 1004,892.5C 1006.22,886.39 1009.22,880.723 1013,875.5C 1015.05,872.019 1017.55,869.019 1020.5,866.5 Z"/></g>
<g><path style="opacity:1" fill="#642438" d="M 321.5,890.5 C 324.39,890.278 327.057,890.945 329.5,892.5C 333.808,898.641 338.308,904.641 343,910.5C 346.469,915.333 346.302,920 342.5,924.5C 338.761,925.908 335.094,925.741 331.5,924C 325.949,917.45 320.783,910.617 316,903.5C 313.472,897.231 315.305,892.897 321.5,890.5 Z"/></g>
<g><path style="opacity:1" fill="#652438" d="M 993.5,907.5 C 1004.05,906.952 1007.55,911.619 1004,921.5C 999.955,927.09 995.788,932.59 991.5,938C 986.511,940.293 981.844,939.793 977.5,936.5C 975.775,934.043 975.275,931.377 976,928.5C 980.454,920.2 986.287,913.2 993.5,907.5 Z"/></g>
<g><path style="opacity:1" fill="#652438" d="M 351.5,928.5 C 353.989,928.298 356.323,928.798 358.5,930C 362.642,935.077 367.142,939.911 372,944.5C 373.734,947.298 374.901,950.298 375.5,953.5C 375.234,958.266 372.734,960.933 368,961.5C 365.343,960.923 362.843,959.923 360.5,958.5C 356.849,954.348 353.016,950.348 349,946.5C 343.679,939.445 344.512,933.445 351.5,928.5 Z"/></g>
<g><path style="opacity:1" fill="#642337" d="M 963.5,942.5 C 970.412,942.574 974.412,946.074 975.5,953C 975.375,954.627 974.875,956.127 974,957.5C 969.708,961.946 965.541,966.446 961.5,971C 958.833,972.333 956.167,973.667 953.5,975C 942.888,974.957 940.055,970.123 945,960.5C 950.964,954.185 957.13,948.185 963.5,942.5 Z"/></g>
<g><path style="opacity:1" fill="#642437" d="M 248.5,958.5 C 255.784,958.719 258.45,962.385 256.5,969.5C 249.302,974.53 241.969,979.363 234.5,984C 238.667,990.167 242.833,996.333 247,1002.5C 251.786,999.382 256.286,995.882 260.5,992C 263.838,990.08 267.338,988.58 271,987.5C 275.691,988.207 277.357,990.874 276,995.5C 274.016,997.763 271.849,999.93 269.5,1002C 254.24,1012.92 239.24,1024.25 224.5,1036C 215.923,1038.59 212.59,1035.43 214.5,1026.5C 221.524,1021.14 228.524,1015.8 235.5,1010.5C 231.557,1003.89 227.224,997.559 222.5,991.5C 217.438,993.738 212.772,996.571 208.5,1000C 205.04,1002.07 201.374,1003.57 197.5,1004.5C 192.46,1004.09 190.626,1001.43 192,996.5C 193.833,993.333 196.333,990.833 199.5,989C 215.897,978.808 232.231,968.642 248.5,958.5 Z"/></g>
<g><path style="opacity:1" fill="#642337" d="M 381.5,962.5 C 385.463,962.089 389.13,962.922 392.5,965C 397.573,969.618 402.74,974.118 408,978.5C 412.244,983.479 412.41,988.479 408.5,993.5C 405.562,994.575 402.562,994.741 399.5,994C 393.096,990.265 387.263,985.765 382,980.5C 376.275,974.483 376.109,968.483 381.5,962.5 Z"/></g>
<g><path style="opacity:1" fill="#652438" d="M 927.5,976.5 C 938.534,977.08 941.701,982.413 937,992.5C 931.445,997.055 925.612,1001.22 919.5,1005C 912.493,1006.33 908.493,1003.5 907.5,996.5C 907.763,993.972 908.596,991.639 910,989.5C 915.734,984.918 921.568,980.585 927.5,976.5 Z"/></g>
<g><path style="opacity:1" fill="#642337" d="M 1052.5,992.5 C 1059.66,991.497 1062.5,994.497 1061,1001.5C 1056.9,1008.7 1052.07,1015.36 1046.5,1021.5C 1050.19,1026.02 1054.35,1030.02 1059,1033.5C 1063.65,1028.1 1068.15,1022.6 1072.5,1017C 1080.66,1012.16 1084.5,1014.32 1084,1023.5C 1079.87,1029.96 1075.37,1036.12 1070.5,1042C 1074.3,1046.13 1078.47,1049.97 1083,1053.5C 1088.5,1046.67 1094,1039.83 1099.5,1033C 1110.85,1028.69 1114.02,1032.19 1109,1043.5C 1101.8,1052.02 1094.64,1060.52 1087.5,1069C 1082.07,1069.62 1077.4,1067.96 1073.5,1064C 1059.67,1051.5 1045.83,1039 1032,1026.5C 1031.03,1022.22 1031.7,1018.22 1034,1014.5C 1040,1007 1046.17,999.668 1052.5,992.5 Z"/></g>
<g><path style="opacity:1" fill="#642437" d="M 419.5,993.5 C 421.857,993.337 424.19,993.503 426.5,994C 433.176,997.67 439.509,1001.84 445.5,1006.5C 451.896,1017.54 448.896,1022.37 436.5,1021C 430.098,1017.76 424.098,1013.93 418.5,1009.5C 414.375,1003.82 414.708,998.49 419.5,993.5 Z"/></g>
<g><path style="opacity:1" fill="#652438" d="M 889.5,1004.5 C 900.565,1003.39 904.398,1008.06 901,1018.5C 893.914,1023.63 886.414,1028.13 878.5,1032C 871.596,1032.88 867.596,1029.88 866.5,1023C 866.741,1021.02 867.408,1019.18 868.5,1017.5C 875.396,1012.89 882.396,1008.56 889.5,1004.5 Z"/></g>
<g><path style="opacity:1" fill="#652438" d="M 289.5,1016.5 C 296.587,1014.92 299.753,1017.59 299,1024.5C 288.468,1045.07 277.301,1065.24 265.5,1085C 259.994,1087.95 256.661,1086.45 255.5,1080.5C 256.77,1075.96 258.603,1071.62 261,1067.5C 261.667,1066.17 261.667,1064.83 261,1063.5C 255.775,1058.06 250.775,1052.4 246,1046.5C 240.235,1049.75 234.069,1050.92 227.5,1050C 222.792,1044.28 224.125,1040.28 231.5,1038C 251.067,1031.12 270.401,1023.95 289.5,1016.5 Z"/></g>
<g><path style="opacity:1" fill="#652539" d="M 461.5,1019.5 C 463.527,1019.34 465.527,1019.5 467.5,1020C 474.009,1023.75 480.676,1027.25 487.5,1030.5C 490.57,1034.78 491.236,1039.45 489.5,1044.5C 486.792,1046.44 483.792,1046.94 480.5,1046C 473.833,1042.67 467.167,1039.33 460.5,1036C 454.88,1029.95 455.214,1024.45 461.5,1019.5 Z"/></g>
<g><path style="opacity:1" fill="#652539" d="M 1021.5,1030.5 C 1024.48,1030.1 1027.15,1030.77 1029.5,1032.5C 1038.72,1053.28 1048.22,1073.94 1058,1094.5C 1059.27,1098.8 1057.77,1101.63 1053.5,1103C 1049.96,1103.57 1046.62,1102.9 1043.5,1101C 1025.29,1091.73 1006.96,1082.73 988.5,1074C 984.592,1070.21 984.592,1066.54 988.5,1063C 990.167,1062.33 991.833,1062.33 993.5,1063C 1008.41,1070.04 1023.24,1077.21 1038,1084.5C 1033.17,1070.15 1027.17,1056.15 1020,1042.5C 1017.49,1037.95 1017.99,1033.95 1021.5,1030.5 Z"/></g>
<g><path style="opacity:1" fill="#eeeae3" d="M 275.5,1035.5 C 276.552,1035.35 277.552,1035.52 278.5,1036C 275.207,1041.42 272.04,1046.92 269,1052.5C 266.175,1048.68 263.008,1045.18 259.5,1042C 265.036,1040.06 270.369,1037.89 275.5,1035.5 Z"/></g>
<g><path style="opacity:1" fill="#652538" d="M 502.5,1040.5 C 505.187,1040.34 507.854,1040.5 510.5,1041C 517.944,1043.56 525.278,1046.39 532.5,1049.5C 536.69,1055.02 536.357,1060.19 531.5,1065C 529.167,1065.67 526.833,1065.67 524.5,1065C 516.833,1061.83 509.167,1058.67 501.5,1055.5C 497.244,1050.02 497.577,1045.02 502.5,1040.5 Z"/></g>
<g><path style="opacity:1" fill="#642437" d="M 316.5,1044.5 C 321.511,1043.33 324.511,1045.16 325.5,1050C 322.218,1067.43 319.718,1084.93 318,1102.5C 326.137,1093.03 334.304,1083.53 342.5,1074C 353.333,1069.5 356.5,1072.67 352,1083.5C 339.49,1098.54 326.99,1113.54 314.5,1128.5C 310.903,1131.08 307.237,1131.08 303.5,1128.5C 302.16,1127.31 301.493,1125.81 301.5,1124C 304.756,1105.88 307.256,1087.71 309,1069.5C 299.71,1079.62 290.21,1089.62 280.5,1099.5C 271.167,1102.17 267.833,1098.83 270.5,1089.5C 284.654,1075.51 298.654,1061.35 312.5,1047C 314.066,1046.39 315.4,1045.56 316.5,1044.5 Z"/></g>
<g><path style="opacity:1" fill="#652438" d="M 547.5,1055.5 C 557.91,1057.35 568.244,1059.69 578.5,1062.5C 581.312,1066.85 581.979,1071.52 580.5,1076.5C 578.808,1077.97 576.808,1078.64 574.5,1078.5C 564.86,1077.42 555.527,1075.09 546.5,1071.5C 542.375,1065.82 542.708,1060.49 547.5,1055.5 Z"/></g>
<g><path style="opacity:1" fill="#652539" d="M 597.5,1066.5 C 606.332,1067.19 614.999,1068.69 623.5,1071C 630.216,1079.61 628.216,1084.77 617.5,1086.5C 609.629,1085.88 601.963,1084.38 594.5,1082C 588.431,1075.17 589.431,1070.01 597.5,1066.5 Z"/></g>
<g><path style="opacity:1" fill="#652438" d="M 969.5,1082.5 C 991.819,1082.67 1006.32,1093.33 1013,1114.5C 1014.25,1145.84 999.421,1159.01 968.5,1154C 951.419,1147.2 942.419,1134.53 941.5,1116C 942.177,1097.19 951.51,1086.02 969.5,1082.5 Z"/></g>
<g><path style="opacity:1" fill="#652438" d="M 361.5,1084.5 C 376.027,1086.88 385.527,1095.21 390,1109.5C 393.683,1127.27 388.517,1141.77 374.5,1153C 359.025,1160.69 344.025,1159.86 329.5,1150.5C 327.823,1148.24 325.657,1146.57 323,1145.5C 321.517,1142.3 321.183,1138.96 322,1135.5C 335.061,1118.29 348.228,1101.29 361.5,1084.5 Z"/></g>
<g><path style="opacity:1" fill="#efebe5" d="M 968.5,1095.5 C 982.588,1094.96 992.754,1100.96 999,1113.5C 1002.97,1126.27 999.137,1135.77 987.5,1142C 973.47,1144.4 963.304,1139.24 957,1126.5C 951.932,1112.67 955.766,1102.33 968.5,1095.5 Z"/></g>
<g><path style="opacity:1" fill="#f0ece6" d="M 365.5,1099.5 C 377.188,1106.37 381.022,1116.37 377,1129.5C 371.081,1143.1 360.914,1148.26 346.5,1145C 342.89,1143.06 339.557,1140.72 336.5,1138C 346.823,1125.53 356.49,1112.7 365.5,1099.5 Z"/></g>
<g><path style="opacity:1" fill="#652438" d="M 414.5,1118.5 C 421.37,1118.03 423.703,1121.03 421.5,1127.5C 422.821,1137.13 423.987,1146.8 425,1156.5C 434.5,1151 444,1145.5 453.5,1140C 460.571,1139.25 463.071,1142.42 461,1149.5C 452.123,1169.42 442.623,1188.92 432.5,1208C 424.83,1209.33 421.997,1206.16 424,1198.5C 429.945,1186.62 435.278,1174.62 440,1162.5C 433.739,1166.38 427.239,1169.88 420.5,1173C 415.102,1174.27 412.269,1172.11 412,1166.5C 411.667,1159.5 411.333,1152.5 411,1145.5C 403.748,1157 396.748,1168.67 390,1180.5C 386.173,1185.21 382.173,1185.55 378,1181.5C 377.159,1177.88 377.826,1174.55 380,1171.5C 390.085,1155 399.919,1138.33 409.5,1121.5C 411.145,1120.3 412.811,1119.3 414.5,1118.5 Z"/></g>
<g><path style="opacity:1" fill="#652438" d="M 899.5,1124.5 C 902.807,1124.06 905.807,1124.73 908.5,1126.5C 917.064,1143.29 925.897,1159.96 935,1176.5C 939.26,1174.62 943.094,1172.12 946.5,1169C 951.288,1166.27 956.288,1164.1 961.5,1162.5C 967.451,1163.66 968.951,1166.99 966,1172.5C 956.419,1179.04 946.586,1185.21 936.5,1191C 933.366,1191.79 930.366,1191.46 927.5,1190C 916.951,1171.07 906.785,1151.9 897,1132.5C 896.023,1129.18 896.856,1126.52 899.5,1124.5 Z"/></g>
<g><path style="opacity:1" fill="#652538" d="M 854.5,1146.5 C 857.695,1145.96 860.195,1146.96 862,1149.5C 869.108,1168.38 876.775,1187.05 885,1205.5C 885.667,1208.5 885.667,1211.5 885,1214.5C 882.365,1217.82 879.198,1218.32 875.5,1216C 871.871,1207.91 868.371,1199.74 865,1191.5C 863.951,1190.48 862.784,1190.32 861.5,1191C 854.793,1194.02 848.126,1197.02 841.5,1200C 844.78,1208.11 847.447,1216.45 849.5,1225C 849.051,1230.89 846.051,1232.73 840.5,1230.5C 838.747,1228 837.247,1225.33 836,1222.5C 829.672,1204.02 823.505,1185.52 817.5,1167C 818.626,1159.77 822.292,1157.94 828.5,1161.5C 831.577,1169.73 834.243,1178.06 836.5,1186.5C 842.325,1185.17 847.992,1183.34 853.5,1181C 855.664,1180.09 857.664,1178.92 859.5,1177.5C 856.027,1169.39 852.694,1161.22 849.5,1153C 849.892,1149.78 851.559,1147.62 854.5,1146.5 Z"/></g>
<g><path style="opacity:1" fill="#642438" d="M 488.5,1154.5 C 491.695,1153.96 494.195,1154.96 496,1157.5C 496.731,1181.85 496.397,1206.18 495,1230.5C 491.667,1234.5 488.333,1234.5 485,1230.5C 484.649,1224.03 483.483,1217.86 481.5,1212C 474.905,1209.69 468.405,1207.19 462,1204.5C 458.141,1208.03 454.307,1211.53 450.5,1215C 441.431,1217.27 438.265,1214.1 441,1205.5C 455.244,1189.98 469.244,1174.31 483,1158.5C 484.812,1157.02 486.645,1155.69 488.5,1154.5 Z"/></g>
<g><path style="opacity:1" fill="#652538" d="M 521.5,1165.5 C 532.076,1166.81 542.076,1169.98 551.5,1175C 565.834,1189.95 568.334,1206.78 559,1225.5C 554.454,1233.05 547.954,1238.22 539.5,1241C 527.92,1243.01 516.587,1242.01 505.5,1238C 504.333,1237.5 503.5,1236.67 503,1235.5C 502.333,1233.17 502.333,1230.83 503,1228.5C 508.022,1208.41 513.355,1188.41 519,1168.5C 519.698,1167.31 520.531,1166.31 521.5,1165.5 Z"/></g>
<g><path style="opacity:1" fill="#652538" d="M 802.5,1165.5 C 810.065,1165.61 812.399,1169.27 809.5,1176.5C 804.558,1179.3 799.224,1180.96 793.5,1181.5C 798.479,1199.88 803.145,1218.38 807.5,1237C 807.064,1242.78 804.064,1245.11 798.5,1244C 796.741,1242.99 795.574,1241.49 795,1239.5C 790.824,1221.8 786.491,1204.13 782,1186.5C 781.107,1185.92 780.107,1185.59 779,1185.5C 774.22,1186.99 769.387,1187.82 764.5,1188C 759.799,1184.22 759.466,1180.22 763.5,1176C 776.661,1172.63 789.661,1169.13 802.5,1165.5 Z"/></g>
<g><path style="opacity:1" fill="#652539" d="M 743.5,1179.5 C 746.157,1179.16 748.49,1179.83 750.5,1181.5C 751.972,1184.72 753.138,1188.05 754,1191.5C 756.579,1209.72 759.412,1227.89 762.5,1246C 762.727,1252.39 759.727,1254.73 753.5,1253C 752.333,1252.5 751.5,1251.67 751,1250.5C 746.79,1227.91 743.457,1205.25 741,1182.5C 741.698,1181.31 742.531,1180.31 743.5,1179.5 Z"/></g>
<g><path style="opacity:1" fill="#eee9e3" d="M 482.5,1179.5 C 483.734,1181.2 484.401,1183.2 484.5,1185.5C 483.703,1189.8 483.37,1194.13 483.5,1198.5C 478.986,1197.58 474.653,1196.08 470.5,1194C 475.082,1189.59 479.082,1184.76 482.5,1179.5 Z"/></g>
<g><path style="opacity:1" fill="#efebe5" d="M 528.5,1180.5 C 545.814,1183.65 553.314,1193.99 551,1211.5C 547.799,1220.03 541.966,1225.87 533.5,1229C 529.167,1229.67 524.833,1229.67 520.5,1229C 518.427,1228.88 517.093,1227.88 516.5,1226C 520.896,1210.92 524.896,1195.75 528.5,1180.5 Z"/></g>
<g><path style="opacity:1" fill="#662539" d="M 579.5,1179.5 C 591.845,1179.36 603.845,1181.19 615.5,1185C 619.239,1191.21 617.572,1194.71 610.5,1195.5C 603.304,1194.7 596.137,1193.7 589,1192.5C 587.893,1192.59 586.893,1192.92 586,1193.5C 584.779,1199.14 584.113,1204.81 584,1210.5C 592.077,1212.25 600.244,1213.58 608.5,1214.5C 611.167,1218.17 611.167,1221.83 608.5,1225.5C 607.061,1226.06 605.561,1226.4 604,1226.5C 596.212,1225.08 588.379,1224.08 580.5,1223.5C 580.07,1229.27 579.07,1234.94 577.5,1240.5C 587.118,1242.47 596.785,1244.3 606.5,1246C 610.823,1248.78 611.49,1252.28 608.5,1256.5C 606.894,1257.08 605.228,1257.41 603.5,1257.5C 591.363,1256.15 579.363,1254.15 567.5,1251.5C 566.416,1250.33 565.583,1249 565,1247.5C 567.638,1226.04 571.305,1204.71 576,1183.5C 576.69,1181.65 577.856,1180.32 579.5,1179.5 Z"/></g>
<g><path style="opacity:1" fill="#652539" d="M 730.5,1181.5 C 735.81,1180.31 738.81,1182.31 739.5,1187.5C 733.654,1210.55 727.654,1233.55 721.5,1256.5C 717.642,1259.2 713.976,1258.87 710.5,1255.5C 705.493,1245.46 700.493,1235.46 695.5,1225.5C 691.169,1236.82 686.836,1248.16 682.5,1259.5C 679.665,1261.96 676.665,1262.13 673.5,1260C 664.928,1238.9 656.428,1217.73 648,1196.5C 646.546,1187.15 650.046,1184.48 658.5,1188.5C 664.383,1204.38 670.716,1220.05 677.5,1235.5C 681.426,1225.56 685.259,1215.56 689,1205.5C 692.667,1202.83 696.333,1202.83 700,1205.5C 704.474,1215.25 709.141,1224.92 714,1234.5C 718.486,1218.89 722.82,1203.22 727,1187.5C 727.424,1184.97 728.59,1182.97 730.5,1181.5 Z"/></g>
</svg>
